<svg xmlns="http://www.w3.org/2000/svg" viewBox="0 0 834 834"><defs><style>.cls-1,.cls-2{fill:#16d636;}.cls-1{opacity:0.5;isolation:isolate;}</style></defs><title>Asset 1cbuilder</title><g id="Layer_2" data-name="Layer 2"><g id="Layer_1-2" data-name="Layer 1"><g id="Layer_2-2" data-name="Layer 2"><g id="Layer_1-2-2" data-name="Layer 1-2"><circle class="cls-1" cx="417" cy="417" r="417"/></g></g><path class="cls-2" d="M365.57,428.73,204.4,589.89a19.9,19.9,0,0,1-28.15,0l-18.8-18.8a19.9,19.9,0,0,1,0-28.11L285.15,414.65,157.43,286.33a19.9,19.9,0,0,1,0-28.11l18.8-18.8a19.9,19.9,0,0,1,28.15,0L365.57,400.58A19.9,19.9,0,0,1,365.57,428.73Zm316.8,151.78V554a19.9,19.9,0,0,0-19.9-19.9H410.37a19.9,19.9,0,0,0-19.9,19.9v26.54a19.9,19.9,0,0,0,19.9,19.9h252.1A19.9,19.9,0,0,0,682.37,580.51Z"/></g></g></svg>