<svg xmlns="http://www.w3.org/2000/svg" xmlns:xlink="http://www.w3.org/1999/xlink" viewBox="0 0 360.42 277.84"><defs><style>.cls-1,.cls-7{mask:url(#mask);}.cls-1{filter:url(#luminosity-noclip-5);}.cls-2,.cls-4,.cls-6,.cls-8{mix-blend-mode:multiply;}.cls-2{fill:url(#_ÂÁ_Ï_ÌÌ_È_ËÂÌÚ_6);}.cls-3{mask:url(#mask-2);filter:url(#luminosity-noclip-6);}.cls-4{fill:url(#_ÂÁ_Ï_ÌÌ_È_ËÂÌÚ_6-2);}.cls-5{mask:url(#mask-3);filter:url(#luminosity-noclip-7);}.cls-6{fill:url(#_ÂÁ_Ï_ÌÌ_È_ËÂÌÚ_6-3);}.cls-7{filter:url(#luminosity-noclip-8);}.cls-8{fill:url(#_ÂÁ_Ï_ÌÌ_È_ËÂÌÚ_6-4);}.cls-10,.cls-11,.cls-12,.cls-9{fill:#42e8e0;}.cls-10{opacity:0.3;}.cls-11{opacity:0.5;}.cls-12{opacity:0.7;}.cls-13{opacity:0.67;}.cls-14{fill:#0f054c;}.cls-15{opacity:0.9;}.cls-16{fill:#080344;}.cls-17{fill:#bcbeff;}.cls-18{fill:url(#_ÂÁ_Ï_ÌÌ_È_ËÂÌÚ_2);}.cls-19{fill:#24126a;}.cls-20{fill:#fff;}.cls-21{fill:url(#_ÂÁ_Ï_ÌÌ_È_ËÂÌÚ_3);}.cls-22{opacity:0.51;}.cls-23{fill:#453c9e;}.cls-24{mask:url(#mask-5);}.cls-25,.cls-46,.cls-64,.cls-84{opacity:0.78;}.cls-25{fill:url(#_ÂÁ_Ï_ÌÌ_È_ËÂÌÚ_14);}.cls-26{fill:url(#_ÂÁ_Ï_ÌÌ_È_ËÂÌÚ_3-2);}.cls-27{fill:url(#_ÂÁ_Ï_ÌÌ_È_ËÂÌÚ_3-3);}.cls-28{fill:url(#_ÂÁ_Ï_ÌÌ_È_ËÂÌÚ_24);}.cls-29{fill:#3f21d3;}.cls-30{fill:url(#_ÂÁ_Ï_ÌÌ_È_ËÂÌÚ_24-2);}.cls-31{fill:url(#_ÂÁ_Ï_ÌÌ_È_ËÂÌÚ_24-3);}.cls-32{fill:url(#_ÂÁ_Ï_ÌÌ_È_ËÂÌÚ_24-4);}.cls-33{fill:url(#_ÂÁ_Ï_ÌÌ_È_ËÂÌÚ_24-5);}.cls-34{fill:url(#_ÂÁ_Ï_ÌÌ_È_ËÂÌÚ_3-4);}.cls-35{fill:url(#_ÂÁ_Ï_ÌÌ_È_ËÂÌÚ_24-6);}.cls-36{fill:url(#_ÂÁ_Ï_ÌÌ_È_ËÂÌÚ_3-5);}.cls-37{fill:url(#_ÂÁ_Ï_ÌÌ_È_ËÂÌÚ_24-7);}.cls-38{fill:url(#_ÂÁ_Ï_ÌÌ_È_ËÂÌÚ_3-6);}.cls-39{fill:url(#_ÂÁ_Ï_ÌÌ_È_ËÂÌÚ_24-8);}.cls-40{fill:url(#_ÂÁ_Ï_ÌÌ_È_ËÂÌÚ_3-7);}.cls-41{fill:url(#_ÂÁ_Ï_ÌÌ_È_ËÂÌÚ_24-9);}.cls-42{fill:url(#_ÂÁ_Ï_ÌÌ_È_ËÂÌÚ_2-2);}.cls-43{fill:url(#_ÂÁ_Ï_ÌÌ_È_ËÂÌÚ_2-3);}.cls-44{fill:url(#_ÂÁ_Ï_ÌÌ_È_ËÂÌÚ_3-8);}.cls-45{mask:url(#mask-6);}.cls-46{fill:url(#_ÂÁ_Ï_ÌÌ_È_ËÂÌÚ_14-2);}.cls-47{fill:url(#_ÂÁ_Ï_ÌÌ_È_ËÂÌÚ_3-9);}.cls-48{fill:url(#_ÂÁ_Ï_ÌÌ_È_ËÂÌÚ_3-10);}.cls-49{fill:url(#_ÂÁ_Ï_ÌÌ_È_ËÂÌÚ_24-10);}.cls-50{fill:url(#_ÂÁ_Ï_ÌÌ_È_ËÂÌÚ_24-11);}.cls-51{fill:url(#_ÂÁ_Ï_ÌÌ_È_ËÂÌÚ_24-12);}.cls-52{fill:url(#_ÂÁ_Ï_ÌÌ_È_ËÂÌÚ_24-13);}.cls-53{fill:url(#_ÂÁ_Ï_ÌÌ_È_ËÂÌÚ_24-14);}.cls-54{fill:url(#_ÂÁ_Ï_ÌÌ_È_ËÂÌÚ_3-11);}.cls-55{fill:url(#_ÂÁ_Ï_ÌÌ_È_ËÂÌÚ_24-15);}.cls-56{fill:url(#_ÂÁ_Ï_ÌÌ_È_ËÂÌÚ_3-12);}.cls-57{fill:url(#_ÂÁ_Ï_ÌÌ_È_ËÂÌÚ_24-16);}.cls-58{fill:url(#_ÂÁ_Ï_ÌÌ_È_ËÂÌÚ_3-13);}.cls-59{fill:url(#_ÂÁ_Ï_ÌÌ_È_ËÂÌÚ_24-17);}.cls-60{fill:url(#_ÂÁ_Ï_ÌÌ_È_ËÂÌÚ_3-14);}.cls-61{fill:url(#_ÂÁ_Ï_ÌÌ_È_ËÂÌÚ_24-18);}.cls-62{fill:url(#_ÂÁ_Ï_ÌÌ_È_ËÂÌÚ_3-15);}.cls-63{mask:url(#mask-7);}.cls-64{fill:url(#_ÂÁ_Ï_ÌÌ_È_ËÂÌÚ_14-3);}.cls-65{fill:url(#_ÂÁ_Ï_ÌÌ_È_ËÂÌÚ_3-16);}.cls-66{fill:url(#_ÂÁ_Ï_ÌÌ_È_ËÂÌÚ_3-17);}.cls-67{fill:url(#_ÂÁ_Ï_ÌÌ_È_ËÂÌÚ_24-19);}.cls-68{fill:url(#_ÂÁ_Ï_ÌÌ_È_ËÂÌÚ_24-20);}.cls-69{fill:url(#_ÂÁ_Ï_ÌÌ_È_ËÂÌÚ_24-21);}.cls-70{fill:url(#_ÂÁ_Ï_ÌÌ_È_ËÂÌÚ_24-22);}.cls-71{fill:url(#_ÂÁ_Ï_ÌÌ_È_ËÂÌÚ_24-23);}.cls-72{fill:url(#_ÂÁ_Ï_ÌÌ_È_ËÂÌÚ_3-18);}.cls-73{fill:url(#_ÂÁ_Ï_ÌÌ_È_ËÂÌÚ_24-24);}.cls-74{fill:url(#_ÂÁ_Ï_ÌÌ_È_ËÂÌÚ_3-19);}.cls-75{fill:url(#_ÂÁ_Ï_ÌÌ_È_ËÂÌÚ_24-25);}.cls-76{fill:url(#_ÂÁ_Ï_ÌÌ_È_ËÂÌÚ_3-20);}.cls-77{fill:url(#_ÂÁ_Ï_ÌÌ_È_ËÂÌÚ_24-26);}.cls-78{fill:url(#_ÂÁ_Ï_ÌÌ_È_ËÂÌÚ_3-21);}.cls-79{fill:url(#_ÂÁ_Ï_ÌÌ_È_ËÂÌÚ_24-27);}.cls-80{fill:url(#_ÂÁ_Ï_ÌÌ_È_ËÂÌÚ_2-4);}.cls-81{fill:url(#_ÂÁ_Ï_ÌÌ_È_ËÂÌÚ_3-22);}.cls-82{fill:#9391ed;}.cls-83{mask:url(#mask-8);}.cls-84{fill:url(#_ÂÁ_Ï_ÌÌ_È_ËÂÌÚ_14-4);}.cls-85{fill:url(#_ÂÁ_Ï_ÌÌ_È_ËÂÌÚ_3-23);}.cls-86{fill:url(#_ÂÁ_Ï_ÌÌ_È_ËÂÌÚ_3-24);}.cls-87{fill:url(#_ÂÁ_Ï_ÌÌ_È_ËÂÌÚ_24-28);}.cls-88{fill:url(#_ÂÁ_Ï_ÌÌ_È_ËÂÌÚ_24-29);}.cls-89{fill:url(#_ÂÁ_Ï_ÌÌ_È_ËÂÌÚ_24-30);}.cls-90{fill:url(#_ÂÁ_Ï_ÌÌ_È_ËÂÌÚ_24-31);}.cls-91{fill:url(#_ÂÁ_Ï_ÌÌ_È_ËÂÌÚ_24-32);}.cls-92{fill:url(#_ÂÁ_Ï_ÌÌ_È_ËÂÌÚ_3-25);}.cls-93{fill:url(#_ÂÁ_Ï_ÌÌ_È_ËÂÌÚ_24-33);}.cls-94{fill:url(#_ÂÁ_Ï_ÌÌ_È_ËÂÌÚ_3-26);}.cls-95{fill:url(#_ÂÁ_Ï_ÌÌ_È_ËÂÌÚ_24-34);}.cls-96{fill:url(#_ÂÁ_Ï_ÌÌ_È_ËÂÌÚ_3-27);}.cls-97{fill:url(#_ÂÁ_Ï_ÌÌ_È_ËÂÌÚ_24-35);}.cls-98{fill:url(#_ÂÁ_Ï_ÌÌ_È_ËÂÌÚ_3-28);}.cls-99{fill:url(#_ÂÁ_Ï_ÌÌ_È_ËÂÌÚ_24-36);}.cls-100{filter:url(#luminosity-noclip-3);}.cls-101{filter:url(#luminosity-noclip-2);}.cls-102{filter:url(#luminosity-noclip);}</style><filter id="luminosity-noclip" x="160.8" y="-8274.96" width="38.85" height="32766" filterUnits="userSpaceOnUse" color-interpolation-filters="sRGB"><feFlood flood-color="#fff" result="bg"/><feBlend in="SourceGraphic" in2="bg"/></filter><mask id="mask" x="160.8" y="-8274.96" width="38.85" height="32766" maskUnits="userSpaceOnUse"><g class="cls-102"/></mask><linearGradient id="_ÂÁ_Ï_ÌÌ_È_ËÂÌÚ_6" x1="160.8" y1="21.7" x2="199.65" y2="21.7" gradientUnits="userSpaceOnUse"><stop offset="0"/><stop offset="0.05" stop-color="#2f2f2f"/><stop offset="0.1" stop-color="#5a5a5a"/><stop offset="0.15" stop-color="#828282"/><stop offset="0.22" stop-color="#a4a4a4"/><stop offset="0.28" stop-color="silver"/><stop offset="0.36" stop-color="#d7d7d7"/><stop offset="0.44" stop-color="#e9e9e9"/><stop offset="0.54" stop-color="#f6f6f6"/><stop offset="0.68" stop-color="#fdfdfd"/><stop offset="1" stop-color="#fff"/></linearGradient><filter id="luminosity-noclip-2" x="118.96" y="-8274.96" width="38.85" height="32766" filterUnits="userSpaceOnUse" color-interpolation-filters="sRGB"><feFlood flood-color="#fff" result="bg"/><feBlend in="SourceGraphic" in2="bg"/></filter><mask id="mask-2" x="118.96" y="-8274.96" width="38.85" height="32766" maskUnits="userSpaceOnUse"><g class="cls-101"/></mask><linearGradient id="_ÂÁ_Ï_ÌÌ_È_ËÂÌÚ_6-2" x1="118.96" y1="45.83" x2="157.81" y2="45.83" xlink:href="#_ÂÁ_Ï_ÌÌ_È_ËÂÌÚ_6"/><filter id="luminosity-noclip-3" x="202.63" y="-8274.96" width="38.85" height="32766" filterUnits="userSpaceOnUse" color-interpolation-filters="sRGB"><feFlood flood-color="#fff" result="bg"/><feBlend in="SourceGraphic" in2="bg"/></filter><mask id="mask-3" x="202.63" y="-8274.96" width="38.85" height="32766" maskUnits="userSpaceOnUse"><g class="cls-100"/></mask><linearGradient id="_ÂÁ_Ï_ÌÌ_È_ËÂÌÚ_6-3" x1="202.63" y1="45.83" x2="241.48" y2="45.83" xlink:href="#_ÂÁ_Ï_ÌÌ_È_ËÂÌÚ_6"/><linearGradient id="_ÂÁ_Ï_ÌÌ_È_ËÂÌÚ_6-4" x1="160.8" y1="69.61" x2="199.65" y2="69.61" xlink:href="#_ÂÁ_Ï_ÌÌ_È_ËÂÌÚ_6"/><linearGradient id="_ÂÁ_Ï_ÌÌ_È_ËÂÌÚ_2" x1="154.83" y1="124.17" x2="244.47" y2="124.17" gradientUnits="userSpaceOnUse"><stop offset="0" stop-color="#5761d7"/><stop offset="0.07" stop-color="#5472d8"/><stop offset="0.28" stop-color="#4e9cdb"/><stop offset="0.48" stop-color="#49bddd"/><stop offset="0.67" stop-color="#45d5df"/><stop offset="0.85" stop-color="#43e3e0"/><stop offset="1" stop-color="#42e8e0"/></linearGradient><linearGradient id="_ÂÁ_Ï_ÌÌ_È_ËÂÌÚ_3" x1="219.07" y1="106.72" x2="219.07" y2="24.73" gradientUnits="userSpaceOnUse"><stop offset="0" stop-color="#c0bff6"/><stop offset="0.29" stop-color="#c5c4f7"/><stop offset="0.64" stop-color="#d3d2f9"/><stop offset="1" stop-color="#e9e9fd"/></linearGradient><filter id="luminosity-noclip-5" x="160.8" y="4.44" width="38.85" height="34.53" filterUnits="userSpaceOnUse" color-interpolation-filters="sRGB"><feFlood flood-color="#fff" result="bg"/><feBlend in="SourceGraphic" in2="bg"/></filter><mask id="mask-5" x="160.8" y="4.44" width="38.85" height="34.53" maskUnits="userSpaceOnUse"><g class="cls-1"><polygon class="cls-2" points="199.65 38.97 189.44 38.97 160.8 22.43 191.96 4.44 199.65 4.44 199.65 38.97"/></g></mask><linearGradient id="_ÂÁ_Ï_ÌÌ_È_ËÂÌÚ_14" x1="160.8" y1="21.7" x2="199.65" y2="21.7" gradientUnits="userSpaceOnUse"><stop offset="0" stop-color="#e9e9fd"/><stop offset="0.04" stop-color="#d3d5f7"/><stop offset="0.11" stop-color="#b2b6ef"/><stop offset="0.18" stop-color="#969be7"/><stop offset="0.27" stop-color="#7f86e1"/><stop offset="0.36" stop-color="#6d75dd"/><stop offset="0.48" stop-color="#606ad9"/><stop offset="0.64" stop-color="#5963d8"/><stop offset="1" stop-color="#5761d7"/></linearGradient><linearGradient id="_ÂÁ_Ï_ÌÌ_È_ËÂÌÚ_3-2" x1="171.46" y1="20.71" x2="227.84" y2="20.71" xlink:href="#_ÂÁ_Ï_ÌÌ_È_ËÂÌÚ_3"/><linearGradient id="_ÂÁ_Ï_ÌÌ_È_ËÂÌÚ_3-3" x1="217.38" y1="36.19" x2="210.53" y2="24.23" xlink:href="#_ÂÁ_Ï_ÌÌ_È_ËÂÌÚ_3"/><linearGradient id="_ÂÁ_Ï_ÌÌ_È_ËÂÌÚ_24" x1="185.55" y1="30.51" x2="185.55" y2="12.26" gradientUnits="userSpaceOnUse"><stop offset="0" stop-color="#5761d7"/><stop offset="0.18" stop-color="#5c66d9"/><stop offset="0.39" stop-color="#6a73df"/><stop offset="0.61" stop-color="#8289e8"/><stop offset="0.85" stop-color="#a3a7f5"/><stop offset="1" stop-color="#bcbeff"/></linearGradient><linearGradient id="_ÂÁ_Ï_ÌÌ_È_ËÂÌÚ_24-2" x1="186.67" y1="16.4" x2="201.26" y2="16.4" xlink:href="#_ÂÁ_Ï_ÌÌ_È_ËÂÌÚ_24"/><linearGradient id="_ÂÁ_Ï_ÌÌ_È_ËÂÌÚ_24-3" x1="190.45" y1="18.58" x2="205.05" y2="18.58" xlink:href="#_ÂÁ_Ï_ÌÌ_È_ËÂÌÚ_24"/><linearGradient id="_ÂÁ_Ï_ÌÌ_È_ËÂÌÚ_24-4" x1="194.24" y1="20.76" x2="208.84" y2="20.76" xlink:href="#_ÂÁ_Ï_ÌÌ_È_ËÂÌÚ_24"/><linearGradient id="_ÂÁ_Ï_ÌÌ_È_ËÂÌÚ_24-5" x1="198.03" y1="22.94" x2="212.63" y2="22.94" xlink:href="#_ÂÁ_Ï_ÌÌ_È_ËÂÌÚ_24"/><linearGradient id="_ÂÁ_Ï_ÌÌ_È_ËÂÌÚ_3-4" x1="194.37" y1="48.1" x2="198.11" y2="48.1" xlink:href="#_ÂÁ_Ï_ÌÌ_È_ËÂÌÚ_3"/><linearGradient id="_ÂÁ_Ï_ÌÌ_È_ËÂÌÚ_24-6" x1="193.92" y1="48.48" x2="197.01" y2="48.48" xlink:href="#_ÂÁ_Ï_ÌÌ_È_ËÂÌÚ_24"/><linearGradient id="_ÂÁ_Ï_ÌÌ_È_ËÂÌÚ_3-5" x1="161.79" y1="28.08" x2="165.53" y2="28.08" xlink:href="#_ÂÁ_Ï_ÌÌ_È_ËÂÌÚ_3"/><linearGradient id="_ÂÁ_Ï_ÌÌ_È_ËÂÌÚ_24-7" x1="161.33" y1="28.46" x2="164.43" y2="28.46" xlink:href="#_ÂÁ_Ï_ÌÌ_È_ËÂÌÚ_24"/><linearGradient id="_ÂÁ_Ï_ÌÌ_È_ËÂÌÚ_3-6" x1="194.37" y1="125.21" x2="198.11" y2="125.21" xlink:href="#_ÂÁ_Ï_ÌÌ_È_ËÂÌÚ_3"/><linearGradient id="_ÂÁ_Ï_ÌÌ_È_ËÂÌÚ_24-8" x1="193.92" y1="125.59" x2="197.01" y2="125.59" xlink:href="#_ÂÁ_Ï_ÌÌ_È_ËÂÌÚ_24"/><linearGradient id="_ÂÁ_Ï_ÌÌ_È_ËÂÌÚ_3-7" x1="161.79" y1="105.19" x2="165.53" y2="105.19" xlink:href="#_ÂÁ_Ï_ÌÌ_È_ËÂÌÚ_3"/><linearGradient id="_ÂÁ_Ï_ÌÌ_È_ËÂÌÚ_24-9" x1="161.33" y1="105.57" x2="164.43" y2="105.57" xlink:href="#_ÂÁ_Ï_ÌÌ_È_ËÂÌÚ_24"/><linearGradient id="_ÂÁ_Ï_ÌÌ_È_ËÂÌÚ_2-2" x1="159.4" y1="124.99" x2="156.22" y2="170.47" xlink:href="#_ÂÁ_Ï_ÌÌ_È_ËÂÌÚ_2"/><linearGradient id="_ÂÁ_Ï_ÌÌ_È_ËÂÌÚ_2-3" x1="243.07" y1="124.99" x2="239.89" y2="170.47" xlink:href="#_ÂÁ_Ï_ÌÌ_È_ËÂÌÚ_2"/><linearGradient id="_ÂÁ_Ï_ÌÌ_È_ËÂÌÚ_3-8" x1="177.24" y1="130.84" x2="177.24" y2="48.86" xlink:href="#_ÂÁ_Ï_ÌÌ_È_ËÂÌÚ_3"/><filter id="luminosity-noclip-6" x="118.96" y="28.56" width="38.85" height="34.53" filterUnits="userSpaceOnUse" color-interpolation-filters="sRGB"><feFlood flood-color="#fff" result="bg"/><feBlend in="SourceGraphic" in2="bg"/></filter><mask id="mask-6" x="118.96" y="28.56" width="38.85" height="34.53" maskUnits="userSpaceOnUse"><g class="cls-3"><polygon class="cls-4" points="157.81 63.09 147.61 63.09 118.97 46.56 150.13 28.56 157.81 28.56 157.81 63.09"/></g></mask><linearGradient id="_ÂÁ_Ï_ÌÌ_È_ËÂÌÚ_14-2" x1="118.96" y1="45.83" x2="157.81" y2="45.83" xlink:href="#_ÂÁ_Ï_ÌÌ_È_ËÂÌÚ_14"/><linearGradient id="_ÂÁ_Ï_ÌÌ_È_ËÂÌÚ_3-9" x1="129.63" y1="44.84" x2="186" y2="44.84" xlink:href="#_ÂÁ_Ï_ÌÌ_È_ËÂÌÚ_3"/><linearGradient id="_ÂÁ_Ï_ÌÌ_È_ËÂÌÚ_3-10" x1="175.55" y1="60.32" x2="168.69" y2="48.35" xlink:href="#_ÂÁ_Ï_ÌÌ_È_ËÂÌÚ_3"/><linearGradient id="_ÂÁ_Ï_ÌÌ_È_ËÂÌÚ_24-10" x1="143.72" y1="54.64" x2="143.72" y2="36.39" xlink:href="#_ÂÁ_Ï_ÌÌ_È_ËÂÌÚ_24"/><linearGradient id="_ÂÁ_Ï_ÌÌ_È_ËÂÌÚ_24-11" x1="144.83" y1="40.52" x2="159.43" y2="40.52" xlink:href="#_ÂÁ_Ï_ÌÌ_È_ËÂÌÚ_24"/><linearGradient id="_ÂÁ_Ï_ÌÌ_È_ËÂÌÚ_24-12" x1="148.62" y1="42.71" x2="163.22" y2="42.71" xlink:href="#_ÂÁ_Ï_ÌÌ_È_ËÂÌÚ_24"/><linearGradient id="_ÂÁ_Ï_ÌÌ_È_ËÂÌÚ_24-13" x1="152.41" y1="44.89" x2="167.01" y2="44.89" xlink:href="#_ÂÁ_Ï_ÌÌ_È_ËÂÌÚ_24"/><linearGradient id="_ÂÁ_Ï_ÌÌ_È_ËÂÌÚ_24-14" x1="156.2" y1="47.07" x2="170.8" y2="47.07" xlink:href="#_ÂÁ_Ï_ÌÌ_È_ËÂÌÚ_24"/><linearGradient id="_ÂÁ_Ï_ÌÌ_È_ËÂÌÚ_3-11" x1="152.54" y1="72.23" x2="156.28" y2="72.23" xlink:href="#_ÂÁ_Ï_ÌÌ_È_ËÂÌÚ_3"/><linearGradient id="_ÂÁ_Ï_ÌÌ_È_ËÂÌÚ_24-15" x1="152.08" y1="72.61" x2="155.17" y2="72.61" xlink:href="#_ÂÁ_Ï_ÌÌ_È_ËÂÌÚ_24"/><linearGradient id="_ÂÁ_Ï_ÌÌ_È_ËÂÌÚ_3-12" x1="119.95" y1="52.21" x2="123.69" y2="52.21" xlink:href="#_ÂÁ_Ï_ÌÌ_È_ËÂÌÚ_3"/><linearGradient id="_ÂÁ_Ï_ÌÌ_È_ËÂÌÚ_24-16" x1="119.5" y1="52.59" x2="122.59" y2="52.59" xlink:href="#_ÂÁ_Ï_ÌÌ_È_ËÂÌÚ_24"/><linearGradient id="_ÂÁ_Ï_ÌÌ_È_ËÂÌÚ_3-13" x1="152.54" y1="149.34" x2="156.28" y2="149.34" xlink:href="#_ÂÁ_Ï_ÌÌ_È_ËÂÌÚ_3"/><linearGradient id="_ÂÁ_Ï_ÌÌ_È_ËÂÌÚ_24-17" x1="152.08" y1="149.72" x2="155.17" y2="149.72" xlink:href="#_ÂÁ_Ï_ÌÌ_È_ËÂÌÚ_24"/><linearGradient id="_ÂÁ_Ï_ÌÌ_È_ËÂÌÚ_3-14" x1="119.95" y1="129.32" x2="123.69" y2="129.32" xlink:href="#_ÂÁ_Ï_ÌÌ_È_ËÂÌÚ_3"/><linearGradient id="_ÂÁ_Ï_ÌÌ_È_ËÂÌÚ_24-18" x1="119.5" y1="129.7" x2="122.59" y2="129.7" xlink:href="#_ÂÁ_Ï_ÌÌ_È_ËÂÌÚ_24"/><linearGradient id="_ÂÁ_Ï_ÌÌ_È_ËÂÌÚ_3-15" x1="260.91" y1="130.84" x2="260.91" y2="48.86" xlink:href="#_ÂÁ_Ï_ÌÌ_È_ËÂÌÚ_3"/><filter id="luminosity-noclip-7" x="202.63" y="28.56" width="38.85" height="34.53" filterUnits="userSpaceOnUse" color-interpolation-filters="sRGB"><feFlood flood-color="#fff" result="bg"/><feBlend in="SourceGraphic" in2="bg"/></filter><mask id="mask-7" x="202.63" y="28.56" width="38.85" height="34.53" maskUnits="userSpaceOnUse"><g class="cls-5"><polygon class="cls-6" points="241.48 63.09 231.27 63.09 202.63 46.56 233.8 28.56 241.48 28.56 241.48 63.09"/></g></mask><linearGradient id="_ÂÁ_Ï_ÌÌ_È_ËÂÌÚ_14-3" x1="202.63" y1="45.83" x2="241.48" y2="45.83" xlink:href="#_ÂÁ_Ï_ÌÌ_È_ËÂÌÚ_14"/><linearGradient id="_ÂÁ_Ï_ÌÌ_È_ËÂÌÚ_3-16" x1="213.29" y1="44.84" x2="269.67" y2="44.84" xlink:href="#_ÂÁ_Ï_ÌÌ_È_ËÂÌÚ_3"/><linearGradient id="_ÂÁ_Ï_ÌÌ_È_ËÂÌÚ_3-17" x1="259.22" y1="60.32" x2="252.36" y2="48.35" xlink:href="#_ÂÁ_Ï_ÌÌ_È_ËÂÌÚ_3"/><linearGradient id="_ÂÁ_Ï_ÌÌ_È_ËÂÌÚ_24-19" x1="227.39" y1="54.64" x2="227.39" y2="36.39" xlink:href="#_ÂÁ_Ï_ÌÌ_È_ËÂÌÚ_24"/><linearGradient id="_ÂÁ_Ï_ÌÌ_È_ËÂÌÚ_24-20" x1="228.5" y1="40.52" x2="243.1" y2="40.52" xlink:href="#_ÂÁ_Ï_ÌÌ_È_ËÂÌÚ_24"/><linearGradient id="_ÂÁ_Ï_ÌÌ_È_ËÂÌÚ_24-21" x1="232.29" y1="42.71" x2="246.89" y2="42.71" xlink:href="#_ÂÁ_Ï_ÌÌ_È_ËÂÌÚ_24"/><linearGradient id="_ÂÁ_Ï_ÌÌ_È_ËÂÌÚ_24-22" x1="236.08" y1="44.89" x2="250.68" y2="44.89" xlink:href="#_ÂÁ_Ï_ÌÌ_È_ËÂÌÚ_24"/><linearGradient id="_ÂÁ_Ï_ÌÌ_È_ËÂÌÚ_24-23" x1="239.87" y1="47.07" x2="254.47" y2="47.07" xlink:href="#_ÂÁ_Ï_ÌÌ_È_ËÂÌÚ_24"/><linearGradient id="_ÂÁ_Ï_ÌÌ_È_ËÂÌÚ_3-18" x1="236.21" y1="72.23" x2="239.94" y2="72.23" xlink:href="#_ÂÁ_Ï_ÌÌ_È_ËÂÌÚ_3"/><linearGradient id="_ÂÁ_Ï_ÌÌ_È_ËÂÌÚ_24-24" x1="235.75" y1="72.61" x2="238.84" y2="72.61" xlink:href="#_ÂÁ_Ï_ÌÌ_È_ËÂÌÚ_24"/><linearGradient id="_ÂÁ_Ï_ÌÌ_È_ËÂÌÚ_3-19" x1="203.62" y1="52.21" x2="207.36" y2="52.21" xlink:href="#_ÂÁ_Ï_ÌÌ_È_ËÂÌÚ_3"/><linearGradient id="_ÂÁ_Ï_ÌÌ_È_ËÂÌÚ_24-25" x1="203.17" y1="52.59" x2="206.26" y2="52.59" xlink:href="#_ÂÁ_Ï_ÌÌ_È_ËÂÌÚ_24"/><linearGradient id="_ÂÁ_Ï_ÌÌ_È_ËÂÌÚ_3-20" x1="236.21" y1="149.34" x2="239.94" y2="149.34" xlink:href="#_ÂÁ_Ï_ÌÌ_È_ËÂÌÚ_3"/><linearGradient id="_ÂÁ_Ï_ÌÌ_È_ËÂÌÚ_24-26" x1="235.75" y1="149.72" x2="238.84" y2="149.72" xlink:href="#_ÂÁ_Ï_ÌÌ_È_ËÂÌÚ_24"/><linearGradient id="_ÂÁ_Ï_ÌÌ_È_ËÂÌÚ_3-21" x1="203.62" y1="129.32" x2="207.36" y2="129.32" xlink:href="#_ÂÁ_Ï_ÌÌ_È_ËÂÌÚ_3"/><linearGradient id="_ÂÁ_Ï_ÌÌ_È_ËÂÌÚ_24-27" x1="203.17" y1="129.7" x2="206.26" y2="129.7" xlink:href="#_ÂÁ_Ï_ÌÌ_È_ËÂÌÚ_24"/><linearGradient id="_ÂÁ_Ï_ÌÌ_È_ËÂÌÚ_2-4" x1="201.24" y1="149.34" x2="198.06" y2="194.81" xlink:href="#_ÂÁ_Ï_ÌÌ_È_ËÂÌÚ_2"/><linearGradient id="_ÂÁ_Ï_ÌÌ_È_ËÂÌÚ_3-22" x1="219.07" y1="154.63" x2="219.07" y2="72.64" xlink:href="#_ÂÁ_Ï_ÌÌ_È_ËÂÌÚ_3"/><filter id="luminosity-noclip-8" x="160.8" y="52.35" width="38.85" height="34.53" filterUnits="userSpaceOnUse" color-interpolation-filters="sRGB"><feFlood flood-color="#fff" result="bg"/><feBlend in="SourceGraphic" in2="bg"/></filter><mask id="mask-8" x="160.8" y="52.35" width="38.85" height="34.53" maskUnits="userSpaceOnUse"><g class="cls-7"><polygon class="cls-8" points="199.65 86.88 189.44 86.88 160.8 70.34 191.96 52.35 199.65 52.35 199.65 86.88"/></g></mask><linearGradient id="_ÂÁ_Ï_ÌÌ_È_ËÂÌÚ_14-4" x1="160.8" y1="69.61" x2="199.65" y2="69.61" xlink:href="#_ÂÁ_Ï_ÌÌ_È_ËÂÌÚ_14"/><linearGradient id="_ÂÁ_Ï_ÌÌ_È_ËÂÌÚ_3-23" x1="171.46" y1="68.62" x2="227.84" y2="68.62" xlink:href="#_ÂÁ_Ï_ÌÌ_È_ËÂÌÚ_3"/><linearGradient id="_ÂÁ_Ï_ÌÌ_È_ËÂÌÚ_3-24" x1="217.38" y1="84.1" x2="210.53" y2="72.13" xlink:href="#_ÂÁ_Ï_ÌÌ_È_ËÂÌÚ_3"/><linearGradient id="_ÂÁ_Ï_ÌÌ_È_ËÂÌÚ_24-28" x1="185.55" y1="78.42" x2="185.55" y2="60.17" xlink:href="#_ÂÁ_Ï_ÌÌ_È_ËÂÌÚ_24"/><linearGradient id="_ÂÁ_Ï_ÌÌ_È_ËÂÌÚ_24-29" x1="186.67" y1="64.31" x2="201.26" y2="64.31" xlink:href="#_ÂÁ_Ï_ÌÌ_È_ËÂÌÚ_24"/><linearGradient id="_ÂÁ_Ï_ÌÌ_È_ËÂÌÚ_24-30" x1="190.45" y1="66.49" x2="205.05" y2="66.49" xlink:href="#_ÂÁ_Ï_ÌÌ_È_ËÂÌÚ_24"/><linearGradient id="_ÂÁ_Ï_ÌÌ_È_ËÂÌÚ_24-31" x1="194.24" y1="68.67" x2="208.84" y2="68.67" xlink:href="#_ÂÁ_Ï_ÌÌ_È_ËÂÌÚ_24"/><linearGradient id="_ÂÁ_Ï_ÌÌ_È_ËÂÌÚ_24-32" x1="198.03" y1="70.85" x2="212.63" y2="70.85" xlink:href="#_ÂÁ_Ï_ÌÌ_È_ËÂÌÚ_24"/><linearGradient id="_ÂÁ_Ï_ÌÌ_È_ËÂÌÚ_3-25" x1="194.37" y1="96.01" x2="198.11" y2="96.01" xlink:href="#_ÂÁ_Ï_ÌÌ_È_ËÂÌÚ_3"/><linearGradient id="_ÂÁ_Ï_ÌÌ_È_ËÂÌÚ_24-33" x1="193.92" y1="96.39" x2="197.01" y2="96.39" xlink:href="#_ÂÁ_Ï_ÌÌ_È_ËÂÌÚ_24"/><linearGradient id="_ÂÁ_Ï_ÌÌ_È_ËÂÌÚ_3-26" x1="161.79" y1="75.99" x2="165.53" y2="75.99" xlink:href="#_ÂÁ_Ï_ÌÌ_È_ËÂÌÚ_3"/><linearGradient id="_ÂÁ_Ï_ÌÌ_È_ËÂÌÚ_24-34" x1="161.33" y1="76.37" x2="164.43" y2="76.37" xlink:href="#_ÂÁ_Ï_ÌÌ_È_ËÂÌÚ_24"/><linearGradient id="_ÂÁ_Ï_ÌÌ_È_ËÂÌÚ_3-27" x1="194.37" y1="173.12" x2="198.11" y2="173.12" xlink:href="#_ÂÁ_Ï_ÌÌ_È_ËÂÌÚ_3"/><linearGradient id="_ÂÁ_Ï_ÌÌ_È_ËÂÌÚ_24-35" x1="193.92" y1="173.5" x2="197.01" y2="173.5" xlink:href="#_ÂÁ_Ï_ÌÌ_È_ËÂÌÚ_24"/><linearGradient id="_ÂÁ_Ï_ÌÌ_È_ËÂÌÚ_3-28" x1="161.79" y1="153.1" x2="165.53" y2="153.1" xlink:href="#_ÂÁ_Ï_ÌÌ_È_ËÂÌÚ_3"/><linearGradient id="_ÂÁ_Ï_ÌÌ_È_ËÂÌÚ_24-36" x1="161.33" y1="153.48" x2="164.43" y2="153.48" xlink:href="#_ÂÁ_Ï_ÌÌ_È_ËÂÌÚ_24"/></defs><title>Asset 1corddiagram</title><g id="Layer_2" data-name="Layer 2"><g id="_ÎÓÈ_1" data-name="—ÎÓÈ_1"><path class="cls-9" d="M60.35,178.87a.3.3,0,0,1-.15-.55L202.48,96.17a.3.3,0,0,1,.3,0l94.71,54.68L360,114.78a.3.3,0,1,1,.3.51l-62.63,36.16a.3.3,0,0,1-.3,0L202.63,96.77,60.49,178.83A.29.29,0,0,1,60.35,178.87Z"/><path class="cls-9" d="M290.56,203a.3.3,0,0,1-.15,0L91.82,88.26a.3.3,0,0,1,0-.51L193.36,29.12a.3.3,0,1,1,.3.51L92.56,88l198,114.31,50.62-29.23a.3.3,0,1,1,.3.51L290.7,202.92A.3.3,0,0,1,290.56,203Z"/><path class="cls-9" d="M239.17,260.35a.29.29,0,0,1-.15,0l-60.62-35a.3.3,0,0,1,0-.51l75.4-43.53a.3.3,0,1,1,.3.51l-75,43.27,60.17,34.74a.3.3,0,0,1-.15.55Z"/><path class="cls-9" d="M327.83,277.84a.29.29,0,0,1-.15,0L.15,88.7a.3.3,0,0,1,.3-.51L328,277.29a.3.3,0,0,1-.15.55Z"/><path class="cls-9" d="M129.89,197.26a.3.3,0,0,1-.15,0l-86-49.63a.3.3,0,0,1,0-.51l75.4-43.53a.3.3,0,0,1,.3.51l-75,43.27,85.37,49.29L334.66,78.4a.3.3,0,0,1,.3.51L130,197.22A.3.3,0,0,1,129.89,197.26Z"/><polygon class="cls-10" points="73.38 89.74 47.4 74.74 73.38 59.74 99.37 74.74 73.38 89.74"/><polygon class="cls-11" points="73.38 72.46 47.4 57.46 73.38 42.46 99.37 57.46 73.38 72.46"/><polygon class="cls-12" points="73.38 58.61 47.4 43.6 73.38 28.6 99.37 43.61 73.38 58.61"/><path class="cls-9" d="M73.38,59.35a.74.74,0,0,1-.37-.1l-26-15A.74.74,0,0,1,47,43L73,28a.74.74,0,0,1,.74,0l26,15a.74.74,0,0,1,0,1.28l-26,15A.74.74,0,0,1,73.38,59.35ZM48.87,43.61,73.38,57.76,97.89,43.61,73.38,29.46Z"/><polygon class="cls-12" points="280.08 257.88 254.1 242.87 280.08 227.87 306.06 242.87 280.08 257.88"/><path class="cls-9" d="M280.08,258.61a.74.74,0,0,1-.37-.1l-26-15a.74.74,0,0,1,0-1.28l26-15a.74.74,0,0,1,.74,0l26,15a.74.74,0,0,1,0,1.28l-26,15A.74.74,0,0,1,280.08,258.61Zm-24.51-15.74L280.08,257l24.51-14.15-24.51-14.15Z"/><polygon class="cls-12" points="337.53 243.61 323.9 235.74 337.53 227.87 351.16 235.74 337.53 243.61"/><polygon class="cls-11" points="337.53 235.74 323.9 227.87 337.53 220 351.16 227.87 337.53 235.74"/><polygon class="cls-10" points="337.53 227.87 323.9 220 337.53 212.13 351.16 220 337.53 227.87"/><path class="cls-9" d="M337.53,244.35a.74.74,0,0,1-.37-.1l-13.63-7.87a.74.74,0,0,1,0-1.28l13.63-7.87a.74.74,0,0,1,.74,0l13.63,7.87a.74.74,0,0,1,0,1.28l-13.63,7.87A.74.74,0,0,1,337.53,244.35Zm-12.16-8.61,12.16,7,12.16-7-12.16-7Z"/><polygon class="cls-12" points="39.16 195.57 25.53 187.69 39.16 179.82 52.8 187.69 39.16 195.57"/><path class="cls-9" d="M39.16,196.3a.74.74,0,0,1-.37-.1l-13.63-7.87a.74.74,0,0,1,0-1.28l13.63-7.87a.74.74,0,0,1,.74,0l13.63,7.87a.74.74,0,0,1,0,1.28l-13.63,7.87A.74.74,0,0,1,39.16,196.3ZM27,187.7l12.16,7,12.16-7-12.16-7Z"/><g class="cls-13"><polygon class="cls-14" points="199.65 218.47 77.19 147.77 199.65 77.08 322.1 147.78 199.65 218.47"/></g><g class="cls-13"><polygon class="cls-14" points="199.65 207.51 96.19 147.77 199.65 88.04 303.11 147.78 199.65 207.51"/></g><g class="cls-15"><polygon class="cls-16" points="199.65 194.77 118.25 147.78 199.65 100.78 281.05 147.78 199.65 194.77"/></g><polygon class="cls-17" points="199.65 44.86 160.8 22.43 199.65 0 238.5 22.43 199.65 44.86"/><path class="cls-18" d="M199.65,150.45a3.1,3.1,0,0,1-1.55-.41L155.6,125.5a1.54,1.54,0,0,1,0-2.66L198.1,98.3a3.11,3.11,0,0,1,3.1,0l42.5,24.54a1.54,1.54,0,0,1,0,2.66L201.2,150A3.1,3.1,0,0,1,199.65,150.45Zm0-51.44a2,2,0,0,0-1,.26l-42.5,24.54a.41.41,0,0,0,0,.72l42.5,24.54a2,2,0,0,0,2,0l42.5-24.54a.41.41,0,0,0,0-.72l-42.5-24.54A2,2,0,0,0,199.65,99Z"/><g class="cls-13"><polygon class="cls-19" points="199.65 143.17 166.73 124.17 199.65 105.16 232.57 124.17 199.65 143.17"/></g><polygon class="cls-20" points="199.65 130.96 160.8 108.53 199.65 86.1 238.5 108.53 199.65 130.96"/><polygon class="cls-21" points="238.5 22.43 238.5 108.53 199.65 130.96 199.65 44.86 238.5 22.43"/><polygon class="cls-19" points="160.8 22.43 160.8 108.53 199.65 130.96 199.65 44.86 160.8 22.43"/><g class="cls-22"><polygon class="cls-23" points="163.43 28.14 163.43 105.53 197.02 124.92 197.02 47.53 163.43 28.14"/></g><polygon class="cls-23" points="232.67 43.23 232.67 45.51 205.48 61.21 205.48 58.93 232.67 43.23"/><polygon class="cls-23" points="232.67 52.85 232.67 55.13 205.48 70.83 205.48 68.56 232.67 52.85"/><polygon class="cls-23" points="232.67 62.48 232.67 64.75 205.48 80.45 205.48 78.18 232.67 62.48"/><polygon class="cls-23" points="232.67 72.1 232.67 74.38 205.48 90.08 205.48 87.8 232.67 72.1"/><polygon class="cls-23" points="232.67 81.72 232.67 84 205.48 99.7 205.48 97.42 232.67 81.72"/><polygon class="cls-23" points="232.67 91.34 232.67 93.62 205.48 109.32 205.48 107.04 232.67 91.34"/><polygon class="cls-20" points="199.65 44.07 161.46 22.02 160.8 22.41 199.65 44.84 238.5 22.41 237.84 22.03 199.65 44.07"/><g class="cls-24"><polygon class="cls-25" points="199.65 38.97 189.44 38.97 160.8 22.43 191.96 4.44 199.65 4.44 199.65 38.97"/></g><polygon class="cls-26" points="199.65 36.99 171.46 20.71 199.65 4.44 227.84 20.71 199.65 36.99"/><polygon class="cls-27" points="227.84 20.71 227.84 22.69 199.65 38.97 199.65 36.99 227.84 20.71"/><polygon class="cls-28" points="171.46 20.71 171.46 22.69 199.65 38.97 199.65 36.99 171.46 20.71"/><polygon class="cls-29" points="188.72 20.97 187.47 20.25 187.57 19.67 199.15 12.93 200.76 13.69 200.46 14.19 188.72 20.97"/><polygon class="cls-30" points="199.21 13.47 200.46 14.19 201.26 13.73 199.21 12.54 186.66 19.79 187.47 20.25 199.21 13.47"/><polygon class="cls-29" points="192.51 23.15 191.26 22.43 191.36 21.85 202.94 15.11 204.55 15.87 204.25 16.37 192.51 23.15"/><polygon class="cls-31" points="203 15.65 204.25 16.37 205.05 15.91 203 14.72 190.46 21.97 191.26 22.43 203 15.65"/><polygon class="cls-29" points="196.29 25.33 195.05 24.61 195.15 24.03 206.73 17.29 208.34 18.05 208.04 18.55 196.29 25.33"/><polygon class="cls-32" points="206.79 17.83 208.04 18.55 208.84 18.09 206.79 16.91 194.24 24.15 195.05 24.61 206.79 17.83"/><polygon class="cls-29" points="200.09 27.52 198.84 26.79 198.94 26.21 210.52 19.47 212.13 20.24 211.83 20.73 200.09 27.52"/><polygon class="cls-33" points="210.58 20.02 211.83 20.73 212.63 20.27 210.58 19.09 198.03 26.33 198.84 26.8 210.58 20.02"/><g class="cls-22"><polygon class="cls-23" points="160.8 94.92 199.65 71.47 199.65 44.86 160.8 22.43 160.8 94.92"/></g><path class="cls-34" d="M198.11,48.73a3.42,3.42,0,0,0-1.55-2.68,1.08,1.08,0,0,0-1.1-.11h0l-1.09.64.68,0a1.77,1.77,0,0,0,0,.33,3.42,3.42,0,0,0,1.55,2.68,1.74,1.74,0,0,0,.33.15l-.32.59,1.07-.63h0A1.08,1.08,0,0,0,198.11,48.73Z"/><path class="cls-35" d="M197,49.38c0,1-.69,1.39-1.55.89a3.42,3.42,0,0,1-1.55-2.68c0-1,.69-1.39,1.55-.89A3.42,3.42,0,0,1,197,49.38Z"/><path class="cls-29" d="M196.35,49c0,.57-.4.8-.89.51a2,2,0,0,1-.89-1.54c0-.57.4-.8.89-.51A2,2,0,0,1,196.35,49Z"/><path class="cls-36" d="M165.53,28.71A3.42,3.42,0,0,0,164,26a1.08,1.08,0,0,0-1.1-.11h0l-1.09.64.68,0a1.77,1.77,0,0,0,0,.33A3.42,3.42,0,0,0,164,29.6a1.74,1.74,0,0,0,.33.15l-.32.59,1.07-.63h0A1.08,1.08,0,0,0,165.53,28.71Z"/><path class="cls-37" d="M164.43,29.36c0,1-.69,1.39-1.55.89a3.42,3.42,0,0,1-1.55-2.68c0-1,.69-1.39,1.55-.89A3.42,3.42,0,0,1,164.43,29.36Z"/><path class="cls-29" d="M163.77,29c0,.57-.4.8-.89.51A2,2,0,0,1,162,28c0-.57.4-.8.89-.51A2,2,0,0,1,163.77,29Z"/><path class="cls-38" d="M198.11,125.84a3.42,3.42,0,0,0-1.55-2.68,1.08,1.08,0,0,0-1.1-.1h0l-1.09.64.68,0a1.77,1.77,0,0,0,0,.33,3.42,3.42,0,0,0,1.55,2.68,1.74,1.74,0,0,0,.33.15l-.32.59,1.07-.63h0A1.08,1.08,0,0,0,198.11,125.84Z"/><path class="cls-39" d="M197,126.48c0,1-.69,1.39-1.55.89a3.42,3.42,0,0,1-1.55-2.68c0-1,.69-1.39,1.55-.89A3.42,3.42,0,0,1,197,126.48Z"/><path class="cls-29" d="M196.35,126.1c0,.57-.4.8-.89.51a2,2,0,0,1-.89-1.54c0-.57.4-.8.89-.51A2,2,0,0,1,196.35,126.1Z"/><path class="cls-40" d="M165.53,105.82a3.42,3.42,0,0,0-1.55-2.68,1.08,1.08,0,0,0-1.1-.1h0l-1.09.64.68,0a1.77,1.77,0,0,0,0,.33,3.42,3.42,0,0,0,1.55,2.68,1.73,1.73,0,0,0,.33.15l-.32.59,1.07-.63h0A1.08,1.08,0,0,0,165.53,105.82Z"/><path class="cls-41" d="M164.43,106.46c0,1-.69,1.39-1.55.89a3.42,3.42,0,0,1-1.55-2.68c0-1,.69-1.39,1.55-.89A3.42,3.42,0,0,1,164.43,106.46Z"/><path class="cls-29" d="M163.77,106.08c0,.57-.4.8-.89.51a2,2,0,0,1-.89-1.54c0-.57.4-.8.89-.51A2,2,0,0,1,163.77,106.08Z"/><path class="cls-42" d="M157.82,170.58a.56.56,0,0,1-.28-.08l-38.61-22.29a.56.56,0,0,1,0-1L157.54,125a.56.56,0,0,1,.56,0l38.61,22.29a.56.56,0,0,1,0,1L158.09,170.5A.56.56,0,0,1,157.82,170.58Zm-37.5-22.85,37.5,21.65,37.5-21.65-37.5-21.65Z"/><path class="cls-43" d="M241.48,170.58a.56.56,0,0,1-.28-.08L202.6,148.21a.56.56,0,0,1,0-1L241.2,125a.56.56,0,0,1,.56,0l38.61,22.29a.56.56,0,0,1,0,1L241.76,170.5A.56.56,0,0,1,241.48,170.58ZM204,147.73l37.5,21.65L279,147.73l-37.5-21.65Z"/><polygon class="cls-17" points="157.81 68.99 118.97 46.56 157.81 24.13 196.66 46.56 157.81 68.99"/><g class="cls-13"><polygon class="cls-19" points="157.81 167.3 124.89 148.29 157.81 129.29 190.73 148.29 157.81 167.3"/></g><polygon class="cls-20" points="157.81 155.08 118.97 132.65 157.81 110.22 196.66 132.66 157.81 155.08"/><polygon class="cls-44" points="196.66 46.56 196.66 132.66 157.81 155.08 157.81 68.99 196.66 46.56"/><polygon class="cls-19" points="118.97 46.56 118.97 132.65 157.81 155.08 157.81 68.99 118.97 46.56"/><g class="cls-22"><polygon class="cls-23" points="121.6 52.27 121.6 129.66 155.18 149.05 155.18 71.66 121.6 52.27"/></g><polygon class="cls-23" points="190.84 67.36 190.84 69.63 163.64 85.33 163.64 83.06 190.84 67.36"/><polygon class="cls-23" points="190.84 76.98 190.84 79.26 163.64 94.96 163.64 92.68 190.84 76.98"/><polygon class="cls-23" points="190.84 86.6 190.84 88.88 163.64 104.58 163.64 102.3 190.84 86.6"/><polygon class="cls-23" points="190.84 96.22 190.84 98.5 163.64 114.2 163.64 111.93 190.84 96.22"/><polygon class="cls-23" points="190.84 105.85 190.84 108.12 163.64 123.82 163.64 121.55 190.84 105.85"/><polygon class="cls-23" points="190.84 115.47 190.84 117.75 163.64 133.45 163.64 131.17 190.84 115.47"/><polygon class="cls-20" points="157.82 68.22 119.63 46.17 118.97 46.56 157.82 68.99 196.66 46.56 196 46.17 157.82 68.22"/><g class="cls-45"><polygon class="cls-46" points="157.81 63.09 147.61 63.09 118.97 46.56 150.13 28.56 157.81 28.56 157.81 63.09"/></g><polygon class="cls-47" points="157.81 61.11 129.63 44.84 157.81 28.56 186 44.84 157.81 61.11"/><polygon class="cls-48" points="186 44.84 186 46.82 157.81 63.09 157.81 61.11 186 44.84"/><polygon class="cls-49" points="129.63 44.84 129.63 46.82 157.81 63.09 157.81 61.11 129.63 44.84"/><polygon class="cls-29" points="146.88 45.1 145.63 44.38 145.74 43.79 157.32 37.05 158.93 37.82 158.63 38.32 146.88 45.1"/><polygon class="cls-50" points="157.38 37.6 158.63 38.32 159.43 37.85 157.38 36.67 144.83 43.91 145.63 44.38 157.38 37.6"/><polygon class="cls-29" points="150.67 47.28 149.42 46.56 149.53 45.97 161.11 39.23 162.71 40 162.41 40.5 150.67 47.28"/><polygon class="cls-51" points="161.17 39.78 162.41 40.5 163.22 40.03 161.17 38.85 148.62 46.09 149.43 46.56 161.17 39.78"/><polygon class="cls-29" points="154.46 49.46 153.21 48.74 153.31 48.15 164.9 41.41 166.5 42.18 166.2 42.68 154.46 49.46"/><polygon class="cls-52" points="164.96 41.96 166.2 42.68 167.01 42.22 164.96 41.03 152.41 48.28 153.21 48.74 164.96 41.96"/><polygon class="cls-29" points="158.25 51.64 157 50.92 157.1 50.34 168.69 43.6 170.29 44.36 169.99 44.86 158.25 51.64"/><polygon class="cls-53" points="168.75 44.14 169.99 44.86 170.8 44.4 168.75 43.21 156.2 50.46 157 50.92 168.75 44.14"/><g class="cls-22"><polygon class="cls-23" points="118.97 119.05 157.81 95.59 157.81 68.99 118.97 46.56 118.97 119.05"/></g><path class="cls-54" d="M156.28,72.86a3.42,3.42,0,0,0-1.55-2.68,1.08,1.08,0,0,0-1.1-.1h0l-1.09.64.68,0a1.78,1.78,0,0,0,0,.33,3.42,3.42,0,0,0,1.55,2.68,1.73,1.73,0,0,0,.33.15l-.32.59,1.07-.63h0A1.08,1.08,0,0,0,156.28,72.86Z"/><path class="cls-55" d="M155.17,73.5c0,1-.69,1.39-1.55.89a3.42,3.42,0,0,1-1.55-2.68c0-1,.69-1.39,1.55-.89A3.42,3.42,0,0,1,155.17,73.5Z"/><path class="cls-29" d="M154.52,73.12c0,.57-.4.8-.89.51a2,2,0,0,1-.89-1.54c0-.57.4-.8.89-.51A2,2,0,0,1,154.52,73.12Z"/><path class="cls-56" d="M123.69,52.84a3.42,3.42,0,0,0-1.55-2.68,1.08,1.08,0,0,0-1.1-.1h0L120,50.7l.68,0a1.78,1.78,0,0,0,0,.33,3.42,3.42,0,0,0,1.55,2.68,1.73,1.73,0,0,0,.33.15l-.32.59,1.07-.63h0A1.08,1.08,0,0,0,123.69,52.84Z"/><path class="cls-57" d="M122.59,53.48c0,1-.69,1.39-1.55.89a3.42,3.42,0,0,1-1.55-2.68c0-1,.69-1.39,1.55-.89A3.42,3.42,0,0,1,122.59,53.48Z"/><path class="cls-29" d="M121.93,53.1c0,.57-.4.8-.89.51a2,2,0,0,1-.89-1.54c0-.57.4-.8.89-.51A2,2,0,0,1,121.93,53.1Z"/><path class="cls-58" d="M156.28,150a3.42,3.42,0,0,0-1.55-2.68,1.08,1.08,0,0,0-1.1-.11h0l-1.09.64.68,0a1.78,1.78,0,0,0,0,.33,3.42,3.42,0,0,0,1.55,2.68,1.73,1.73,0,0,0,.33.15l-.32.59,1.07-.63h0A1.08,1.08,0,0,0,156.28,150Z"/><path class="cls-59" d="M155.17,150.61c0,1-.69,1.39-1.55.89a3.42,3.42,0,0,1-1.55-2.68c0-1,.69-1.39,1.55-.89A3.42,3.42,0,0,1,155.17,150.61Z"/><path class="cls-29" d="M154.52,150.23c0,.57-.4.8-.89.51a2,2,0,0,1-.89-1.54c0-.57.4-.8.89-.51A2,2,0,0,1,154.52,150.23Z"/><path class="cls-60" d="M123.69,129.95a3.42,3.42,0,0,0-1.55-2.68,1.08,1.08,0,0,0-1.1-.1h0l-1.09.64.68,0a1.78,1.78,0,0,0,0,.33,3.42,3.42,0,0,0,1.55,2.68,1.73,1.73,0,0,0,.33.15l-.32.59,1.07-.63h0A1.08,1.08,0,0,0,123.69,129.95Z"/><path class="cls-61" d="M122.59,130.59c0,1-.69,1.39-1.55.89a3.42,3.42,0,0,1-1.55-2.68c0-1,.69-1.39,1.55-.89A3.42,3.42,0,0,1,122.59,130.59Z"/><path class="cls-29" d="M121.93,130.21c0,.57-.4.8-.89.51a2,2,0,0,1-.89-1.54c0-.57.4-.8.89-.51A2,2,0,0,1,121.93,130.21Z"/><polygon class="cls-17" points="241.48 68.99 202.63 46.56 241.48 24.13 280.33 46.56 241.48 68.99"/><g class="cls-13"><polygon class="cls-19" points="241.48 167.3 208.56 148.29 241.48 129.29 274.4 148.29 241.48 167.3"/></g><polygon class="cls-20" points="241.48 155.08 202.63 132.65 241.48 110.22 280.33 132.66 241.48 155.08"/><polygon class="cls-62" points="280.33 46.56 280.33 132.66 241.48 155.08 241.48 68.99 280.33 46.56"/><polygon class="cls-19" points="202.63 46.56 202.63 132.65 241.48 155.08 241.48 68.99 202.63 46.56"/><g class="cls-22"><polygon class="cls-23" points="205.26 52.27 205.26 129.66 238.85 149.05 238.85 71.66 205.26 52.27"/></g><polygon class="cls-23" points="274.5 67.36 274.5 69.63 247.31 85.33 247.31 83.06 274.5 67.36"/><polygon class="cls-23" points="274.5 76.98 274.5 79.26 247.31 94.96 247.31 92.68 274.5 76.98"/><polygon class="cls-23" points="274.5 86.6 274.5 88.88 247.31 104.58 247.31 102.3 274.5 86.6"/><polygon class="cls-23" points="274.5 96.22 274.5 98.5 247.31 114.2 247.31 111.93 274.5 96.22"/><polygon class="cls-23" points="274.5 105.85 274.5 108.12 247.31 123.82 247.31 121.55 274.5 105.85"/><polygon class="cls-23" points="274.5 115.47 274.5 117.75 247.31 133.45 247.31 131.17 274.5 115.47"/><polygon class="cls-20" points="241.48 68.22 203.3 46.17 202.63 46.56 241.48 68.99 280.33 46.56 279.67 46.17 241.48 68.22"/><g class="cls-63"><polygon class="cls-64" points="241.48 63.09 231.27 63.09 202.63 46.56 233.8 28.56 241.48 28.56 241.48 63.09"/></g><polygon class="cls-65" points="241.48 61.11 213.29 44.84 241.48 28.56 269.67 44.84 241.48 61.11"/><polygon class="cls-66" points="269.67 44.84 269.67 46.82 241.48 63.09 241.48 61.11 269.67 44.84"/><polygon class="cls-67" points="213.29 44.84 213.29 46.82 241.48 63.09 241.48 61.11 213.29 44.84"/><polygon class="cls-29" points="230.55 45.1 229.3 44.38 229.41 43.79 240.99 37.05 242.59 37.82 242.29 38.32 230.55 45.1"/><polygon class="cls-68" points="241.05 37.6 242.29 38.32 243.1 37.85 241.05 36.67 228.5 43.91 229.3 44.38 241.05 37.6"/><polygon class="cls-29" points="234.34 47.28 233.09 46.56 233.19 45.97 244.78 39.23 246.38 40 246.08 40.5 234.34 47.28"/><polygon class="cls-69" points="244.84 39.78 246.08 40.5 246.89 40.03 244.84 38.85 232.29 46.09 233.09 46.56 244.84 39.78"/><polygon class="cls-29" points="238.13 49.46 236.88 48.74 236.98 48.15 248.56 41.41 250.17 42.18 249.87 42.68 238.13 49.46"/><polygon class="cls-70" points="248.63 41.96 249.87 42.68 250.68 42.22 248.63 41.03 236.08 48.28 236.88 48.74 248.63 41.96"/><polygon class="cls-29" points="241.92 51.64 240.67 50.92 240.77 50.34 252.35 43.6 253.96 44.36 253.66 44.86 241.92 51.64"/><polygon class="cls-71" points="252.41 44.14 253.66 44.86 254.47 44.4 252.41 43.21 239.87 50.46 240.67 50.92 252.41 44.14"/><g class="cls-22"><polygon class="cls-23" points="202.63 119.05 241.48 95.59 241.48 68.99 202.63 46.56 202.63 119.05"/></g><path class="cls-72" d="M239.94,72.86a3.42,3.42,0,0,0-1.55-2.68,1.08,1.08,0,0,0-1.1-.1h0l-1.09.64.68,0a1.77,1.77,0,0,0,0,.33,3.42,3.42,0,0,0,1.55,2.68,1.74,1.74,0,0,0,.33.15l-.32.59,1.07-.63h0A1.08,1.08,0,0,0,239.94,72.86Z"/><path class="cls-73" d="M238.84,73.5c0,1-.69,1.39-1.55.89a3.42,3.42,0,0,1-1.55-2.68c0-1,.69-1.39,1.55-.89A3.42,3.42,0,0,1,238.84,73.5Z"/><path class="cls-29" d="M238.19,73.12c0,.57-.4.8-.89.51a2,2,0,0,1-.89-1.54c0-.57.4-.8.89-.51A2,2,0,0,1,238.19,73.12Z"/><path class="cls-74" d="M207.36,52.84a3.42,3.42,0,0,0-1.55-2.68,1.08,1.08,0,0,0-1.1-.1h0l-1.09.64.68,0a1.77,1.77,0,0,0,0,.33,3.42,3.42,0,0,0,1.55,2.68,1.74,1.74,0,0,0,.33.15l-.32.59,1.07-.63h0A1.08,1.08,0,0,0,207.36,52.84Z"/><path class="cls-75" d="M206.26,53.48c0,1-.69,1.39-1.55.89a3.42,3.42,0,0,1-1.55-2.68c0-1,.69-1.39,1.55-.89A3.42,3.42,0,0,1,206.26,53.48Z"/><path class="cls-29" d="M205.6,53.1c0,.57-.4.8-.89.51a2,2,0,0,1-.89-1.54c0-.57.4-.8.89-.51A2,2,0,0,1,205.6,53.1Z"/><path class="cls-76" d="M239.94,150a3.42,3.42,0,0,0-1.55-2.68,1.08,1.08,0,0,0-1.1-.11h0l-1.09.64.68,0a1.77,1.77,0,0,0,0,.33,3.42,3.42,0,0,0,1.55,2.68,1.73,1.73,0,0,0,.33.15l-.32.59,1.07-.63h0A1.08,1.08,0,0,0,239.94,150Z"/><path class="cls-77" d="M238.84,150.61c0,1-.69,1.39-1.55.89a3.42,3.42,0,0,1-1.55-2.68c0-1,.69-1.39,1.55-.89A3.42,3.42,0,0,1,238.84,150.61Z"/><path class="cls-29" d="M238.19,150.23c0,.57-.4.8-.89.51a2,2,0,0,1-.89-1.54c0-.57.4-.8.89-.51A2,2,0,0,1,238.19,150.23Z"/><path class="cls-78" d="M207.36,129.95a3.42,3.42,0,0,0-1.55-2.68,1.08,1.08,0,0,0-1.1-.1h0l-1.09.64.68,0a1.77,1.77,0,0,0,0,.33,3.42,3.42,0,0,0,1.55,2.68,1.74,1.74,0,0,0,.33.15l-.32.59,1.07-.63h0A1.08,1.08,0,0,0,207.36,129.95Z"/><path class="cls-79" d="M206.26,130.59c0,1-.69,1.39-1.55.89a3.42,3.42,0,0,1-1.55-2.68c0-1,.69-1.39,1.55-.89A3.42,3.42,0,0,1,206.26,130.59Z"/><path class="cls-29" d="M205.6,130.21c0,.57-.4.8-.89.51a2,2,0,0,1-.89-1.54c0-.57.4-.8.89-.51A2,2,0,0,1,205.6,130.21Z"/><path class="cls-80" d="M199.65,194.92a.56.56,0,0,1-.28-.08l-38.61-22.29a.56.56,0,0,1,0-1l38.61-22.29a.56.56,0,0,1,.56,0l38.61,22.29a.56.56,0,0,1,0,1l-38.61,22.29A.56.56,0,0,1,199.65,194.92Zm-37.5-22.85,37.5,21.65,37.5-21.65-37.5-21.65Z"/><polygon class="cls-17" points="199.65 92.77 160.8 70.34 199.65 47.91 238.5 70.34 199.65 92.77"/><polygon class="cls-20" points="199.65 92 161.46 69.96 160.8 70.34 199.65 92.77 238.5 70.34 237.84 69.96 199.65 92"/><g class="cls-13"><polygon class="cls-19" points="199.65 191.08 166.73 172.08 199.65 153.07 232.57 172.08 199.65 191.08"/></g><polygon class="cls-20" points="199.65 178.87 160.8 156.44 199.65 134.01 238.5 156.44 199.65 178.87"/><polygon class="cls-81" points="238.5 70.34 238.5 156.44 199.65 178.87 199.65 92.77 238.5 70.34"/><polygon class="cls-19" points="160.8 70.34 160.8 156.44 199.65 178.87 199.65 92.77 160.8 70.34"/><g class="cls-22"><polygon class="cls-23" points="163.43 76.05 163.43 153.44 197.02 172.83 197.02 95.44 163.43 76.05"/></g><polygon class="cls-82" points="163.94 153.09 163.94 76.35 163.43 76.05 163.43 153.44 197.02 172.83 197.02 172.18 163.94 153.09"/><polygon class="cls-23" points="232.67 91.14 232.67 93.42 205.48 109.12 205.48 106.84 232.67 91.14"/><polygon class="cls-23" points="232.67 100.76 232.67 103.04 205.48 118.74 205.48 116.46 232.67 100.76"/><polygon class="cls-23" points="232.67 110.39 232.67 112.66 205.48 128.36 205.48 126.09 232.67 110.39"/><polygon class="cls-23" points="232.67 120.01 232.67 122.28 205.48 137.98 205.48 135.71 232.67 120.01"/><polygon class="cls-23" points="232.67 129.63 232.67 131.91 205.48 147.61 205.48 145.33 232.67 129.63"/><polygon class="cls-23" points="232.67 139.25 232.67 141.53 205.48 157.23 205.48 154.95 232.67 139.25"/><g class="cls-83"><polygon class="cls-84" points="199.65 86.88 189.44 86.88 160.8 70.34 191.96 52.35 199.65 52.35 199.65 86.88"/></g><polygon class="cls-85" points="199.65 84.89 171.46 68.62 199.65 52.35 227.84 68.62 199.65 84.89"/><polygon class="cls-86" points="227.84 68.62 227.84 70.6 199.65 86.88 199.65 84.89 227.84 68.62"/><polygon class="cls-87" points="171.46 68.62 171.46 70.6 199.65 86.88 199.65 84.89 171.46 68.62"/><polygon class="cls-29" points="188.72 68.88 187.47 68.16 187.57 67.58 199.15 60.84 200.76 61.6 200.46 62.1 188.72 68.88"/><polygon class="cls-88" points="199.21 61.38 200.46 62.1 201.26 61.64 199.21 60.45 186.66 67.7 187.47 68.16 199.21 61.38"/><polygon class="cls-29" points="192.51 71.06 191.26 70.34 191.36 69.76 202.94 63.02 204.55 63.78 204.25 64.28 192.51 71.06"/><polygon class="cls-89" points="203 63.56 204.25 64.28 205.05 63.82 203 62.63 190.46 69.88 191.26 70.34 203 63.56"/><polygon class="cls-29" points="196.29 73.24 195.05 72.52 195.15 71.94 206.73 65.2 208.34 65.96 208.04 66.46 196.29 73.24"/><polygon class="cls-90" points="206.79 65.74 208.04 66.46 208.84 66 206.79 64.81 194.24 72.06 195.05 72.52 206.79 65.74"/><polygon class="cls-29" points="200.09 75.42 198.84 74.7 198.94 74.12 210.52 67.38 212.13 68.14 211.83 68.64 200.09 75.42"/><polygon class="cls-91" points="210.58 67.92 211.83 68.64 212.63 68.18 210.58 67 198.03 74.24 198.84 74.7 210.58 67.92"/><g class="cls-22"><polygon class="cls-23" points="160.8 142.83 199.65 119.37 199.65 92.77 160.8 70.34 160.8 142.83"/></g><path class="cls-92" d="M198.11,96.64A3.42,3.42,0,0,0,196.56,94a1.08,1.08,0,0,0-1.1-.1h0l-1.09.64.68,0a1.77,1.77,0,0,0,0,.33,3.42,3.42,0,0,0,1.55,2.68,1.74,1.74,0,0,0,.33.15l-.32.59,1.07-.63h0A1.08,1.08,0,0,0,198.11,96.64Z"/><path class="cls-93" d="M197,97.29c0,1-.69,1.39-1.55.89a3.42,3.42,0,0,1-1.55-2.68c0-1,.69-1.39,1.55-.89A3.42,3.42,0,0,1,197,97.29Z"/><path class="cls-29" d="M196.35,96.91c0,.57-.4.8-.89.51a2,2,0,0,1-.89-1.54c0-.57.4-.8.89-.51A2,2,0,0,1,196.35,96.91Z"/><path class="cls-94" d="M165.53,76.62A3.42,3.42,0,0,0,164,73.94a1.08,1.08,0,0,0-1.1-.11h0l-1.09.64.68,0a1.77,1.77,0,0,0,0,.33A3.42,3.42,0,0,0,164,77.51a1.74,1.74,0,0,0,.33.15l-.32.59,1.07-.63h0A1.08,1.08,0,0,0,165.53,76.62Z"/><path class="cls-95" d="M164.43,77.27c0,1-.69,1.39-1.55.89a3.42,3.42,0,0,1-1.55-2.68c0-1,.69-1.39,1.55-.89A3.42,3.42,0,0,1,164.43,77.27Z"/><path class="cls-29" d="M163.77,76.89c0,.57-.4.8-.89.51a2,2,0,0,1-.89-1.54c0-.57.4-.8.89-.51A2,2,0,0,1,163.77,76.89Z"/><path class="cls-96" d="M198.11,173.75a3.42,3.42,0,0,0-1.55-2.68,1.08,1.08,0,0,0-1.1-.1h0l-1.09.64.68,0a1.77,1.77,0,0,0,0,.33,3.42,3.42,0,0,0,1.55,2.68,1.74,1.74,0,0,0,.33.15l-.32.59,1.07-.63h0A1.08,1.08,0,0,0,198.11,173.75Z"/><path class="cls-97" d="M197,174.39c0,1-.69,1.39-1.55.89a3.42,3.42,0,0,1-1.55-2.68c0-1,.69-1.39,1.55-.89A3.42,3.42,0,0,1,197,174.39Z"/><path class="cls-29" d="M196.35,174c0,.57-.4.8-.89.51a2,2,0,0,1-.89-1.54c0-.57.4-.8.89-.51A2,2,0,0,1,196.35,174Z"/><path class="cls-98" d="M165.53,153.73a3.42,3.42,0,0,0-1.55-2.68,1.08,1.08,0,0,0-1.1-.1h0l-1.09.64.68,0a1.77,1.77,0,0,0,0,.33,3.42,3.42,0,0,0,1.55,2.68,1.74,1.74,0,0,0,.33.15l-.32.59,1.07-.63h0A1.08,1.08,0,0,0,165.53,153.73Z"/><path class="cls-99" d="M164.43,154.37c0,1-.69,1.39-1.55.89a3.42,3.42,0,0,1-1.55-2.68c0-1,.69-1.39,1.55-.89A3.42,3.42,0,0,1,164.43,154.37Z"/><path class="cls-29" d="M163.77,154c0,.57-.4.8-.89.51A2,2,0,0,1,162,153c0-.57.4-.8.89-.51A2,2,0,0,1,163.77,154Z"/><polygon class="cls-9" points="133.72 82.89 126.44 78.69 126.44 77.09 133.72 81.29 133.72 82.89"/><polygon class="cls-9" points="137.45 85.04 134.83 83.53 134.83 81.93 137.45 83.44 137.45 85.04"/><polygon class="cls-9" points="140.34 86.71 138.56 85.68 138.56 84.09 140.34 85.11 140.34 86.71"/><polygon class="cls-9" points="130.41 84.63 126.44 82.34 126.44 80.74 130.41 83.03 130.41 84.63"/><polygon class="cls-9" points="136.38 88.07 131.52 85.27 131.52 83.67 136.38 86.47 136.38 88.07"/><polygon class="cls-9" points="139.27 89.74 137.49 88.71 137.49 87.12 139.27 88.14 139.27 89.74"/><polygon class="cls-9" points="142.02 91.33 140.24 90.3 140.24 88.7 142.02 89.73 142.02 91.33"/><polygon class="cls-9" points="129.31 87.64 126.44 85.99 126.44 84.39 129.31 86.05 129.31 87.64"/><polygon class="cls-9" points="131.4 88.85 130.42 88.28 130.42 86.69 131.4 87.25 131.4 88.85"/><polygon class="cls-9" points="134.29 90.52 132.51 89.49 132.51 87.89 134.29 88.92 134.29 90.52"/><polygon class="cls-9" points="137.03 95.75 126.44 89.64 126.44 88.04 137.03 94.15 137.03 95.75"/><polygon class="cls-9" points="140.76 97.9 138.14 96.39 138.14 94.79 140.76 96.31 140.76 97.9"/><polygon class="cls-9" points="129.31 94.94 126.44 93.29 126.44 91.69 129.31 93.34 129.31 94.94"/><polygon class="cls-9" points="136.04 98.83 130.42 95.58 130.42 93.99 136.04 97.23 136.04 98.83"/><polygon class="cls-9" points="138.93 100.5 137.15 99.47 137.15 97.87 138.93 98.9 138.93 100.5"/><polygon class="cls-9" points="132.31 100.32 126.44 96.94 126.44 95.34 132.31 98.73 132.31 100.32"/><polygon class="cls-9" points="137.67 103.42 133.42 100.97 133.42 99.37 137.67 101.82 137.67 103.42"/><polygon class="cls-9" points="141.65 105.71 138.78 104.06 138.78 102.46 141.65 104.12 141.65 105.71"/><polygon class="cls-9" points="128.42 101.73 126.44 100.59 126.44 98.99 128.42 100.13 128.42 101.73"/><polygon class="cls-9" points="132.16 103.88 129.54 102.37 129.54 100.77 132.16 102.29 132.16 103.88"/><polygon class="cls-9" points="137.49 106.96 133.27 104.53 133.27 102.93 137.49 105.36 137.49 106.96"/><polygon class="cls-9" points="132.51 107.74 126.44 104.23 126.44 102.64 132.51 106.14 132.51 107.74"/><polygon class="cls-9" points="139.31 111.67 133.63 108.38 133.63 106.78 139.31 110.07 139.31 111.67"/><polygon class="cls-9" points="142.21 113.34 140.43 112.31 140.43 110.71 142.21 111.74 142.21 113.34"/><polygon class="cls-9" points="144.98 114.94 143.2 113.91 143.2 112.31 144.98 113.34 144.98 114.94"/><polygon class="cls-9" points="130.08 109.98 126.44 107.89 126.44 106.29 130.08 108.39 130.08 109.98"/><polygon class="cls-9" points="145.29 89.57 150.34 92.48 150.34 90.89 145.29 87.97 145.29 89.57"/><polygon class="cls-9" points="146.37 93.84 150.34 96.13 150.34 94.53 146.37 92.25 146.37 93.84"/><polygon class="cls-9" points="147.47 98.13 150.34 99.78 150.34 98.19 147.47 96.53 147.47 98.13"/><polygon class="cls-9" points="146.17 101.02 150.34 103.43 150.34 101.83 146.17 99.43 146.17 101.02"/><polygon class="cls-9" points="147.47 105.43 150.34 107.08 150.34 105.48 147.47 103.83 147.47 105.43"/><polygon class="cls-9" points="146.7 108.63 150.34 110.73 150.34 109.13 146.7 107.03 146.7 108.63"/><polygon class="cls-9" points="148.36 113.24 150.34 114.38 150.34 112.78 148.36 111.64 148.36 113.24"/><polygon class="cls-9" points="146.5 115.81 150.34 118.03 150.34 116.43 146.5 114.22 146.5 115.81"/><polygon class="cls-9" points="146.7 119.58 150.34 121.68 150.34 120.08 146.7 117.98 146.7 119.58"/><polygon class="cls-9" points="132.74 111.52 131.19 110.63 131.19 109.03 132.74 109.92 132.74 111.52"/><polygon class="cls-9" points="137.33 114.17 133.85 112.16 133.85 110.56 137.33 112.57 137.33 114.17"/><polygon class="cls-9" points="140.21 126.45 134.34 123.06 134.34 121.46 140.21 124.85 140.21 126.45"/><polygon class="cls-9" points="144.24 128.77 141.92 127.44 141.92 125.84 144.24 127.17 144.24 128.77"/><polygon class="cls-9" points="175.55 104.78 168.28 100.58 168.28 98.98 175.55 103.18 175.55 104.78"/><polygon class="cls-9" points="179.28 106.93 176.66 105.42 176.66 103.82 179.28 105.34 179.28 106.93"/><polygon class="cls-9" points="182.17 108.6 180.39 107.58 180.39 105.98 182.17 107.01 182.17 108.6"/><polygon class="cls-9" points="172.24 106.52 168.28 104.23 168.28 102.63 172.24 104.92 172.24 106.52"/><polygon class="cls-9" points="178.21 109.97 173.35 107.16 173.35 105.56 178.21 108.37 178.21 109.97"/><polygon class="cls-9" points="181.1 111.63 179.32 110.61 179.32 109.01 181.1 110.04 181.1 111.63"/><polygon class="cls-9" points="183.85 113.22 182.07 112.19 182.07 110.6 183.85 111.63 183.85 113.22"/><polygon class="cls-9" points="171.14 109.53 168.28 107.88 168.28 106.28 171.14 107.94 171.14 109.53"/><polygon class="cls-9" points="173.24 110.74 172.26 110.18 172.26 108.58 173.24 109.14 173.24 110.74"/><polygon class="cls-9" points="176.13 112.41 174.35 111.39 174.35 109.79 176.13 110.81 176.13 112.41"/><polygon class="cls-9" points="178.86 117.64 168.28 111.53 168.28 109.93 178.86 116.04 178.86 117.64"/><polygon class="cls-9" points="182.59 119.8 179.97 118.28 179.97 116.69 182.59 118.2 182.59 119.8"/><polygon class="cls-9" points="171.14 116.83 168.28 115.18 168.28 113.58 171.14 115.24 171.14 116.83"/><polygon class="cls-9" points="177.88 120.72 172.26 117.48 172.26 115.88 177.88 119.12 177.88 120.72"/><polygon class="cls-9" points="180.77 122.39 178.99 121.36 178.99 119.77 180.77 120.79 180.77 122.39"/><polygon class="cls-9" points="174.15 122.22 168.28 118.83 168.28 117.23 174.15 120.62 174.15 122.22"/><polygon class="cls-9" points="179.5 125.31 175.26 122.86 175.26 121.26 179.5 123.71 179.5 125.31"/><polygon class="cls-9" points="183.48 127.61 180.61 125.95 180.61 124.35 183.48 126.01 183.48 127.61"/><polygon class="cls-9" points="170.26 123.62 168.28 122.48 168.28 120.88 170.26 122.03 170.26 123.62"/><polygon class="cls-9" points="173.99 125.78 171.37 124.26 171.37 122.67 173.99 124.18 173.99 125.78"/><polygon class="cls-9" points="179.32 128.85 175.1 126.42 175.1 124.82 179.32 127.26 179.32 128.85"/><polygon class="cls-9" points="174.35 129.63 168.28 126.13 168.28 124.53 174.35 128.04 174.35 129.63"/><polygon class="cls-9" points="181.15 133.56 175.46 130.28 175.46 128.68 181.15 131.96 181.15 133.56"/><polygon class="cls-9" points="184.04 135.23 182.26 134.2 182.26 132.6 184.04 133.63 184.04 135.23"/><polygon class="cls-9" points="186.81 136.83 185.03 135.8 185.03 134.21 186.81 135.23 186.81 136.83"/><polygon class="cls-9" points="171.91 131.88 168.28 129.78 168.28 128.18 171.91 130.28 171.91 131.88"/><polygon class="cls-9" points="187.13 111.46 192.17 114.38 192.17 112.78 187.13 109.87 187.13 111.46"/><polygon class="cls-9" points="188.21 115.74 192.17 118.03 192.17 116.43 188.21 114.14 188.21 115.74"/><polygon class="cls-9" points="189.3 120.02 192.17 121.68 192.17 120.08 189.3 118.42 189.3 120.02"/><polygon class="cls-9" points="188 122.92 192.17 125.33 192.17 123.73 188 121.32 188 122.92"/><polygon class="cls-9" points="189.3 127.32 192.17 128.97 192.17 127.38 189.3 125.72 189.3 127.32"/><polygon class="cls-9" points="188.53 130.52 192.17 132.63 192.17 131.03 188.53 128.93 188.53 130.52"/><polygon class="cls-9" points="190.19 135.13 192.17 136.27 192.17 134.68 190.19 133.53 190.19 135.13"/><polygon class="cls-9" points="188.33 137.71 192.17 139.92 192.17 138.33 188.33 136.11 188.33 137.71"/><polygon class="cls-9" points="188.53 141.47 192.17 143.57 192.17 141.98 188.53 139.88 188.53 141.47"/><polygon class="cls-9" points="174.57 133.41 173.03 132.52 173.03 130.92 174.57 131.81 174.57 133.41"/><polygon class="cls-9" points="179.17 136.06 175.68 134.05 175.68 132.46 179.17 134.47 179.17 136.06"/><polygon class="cls-9" points="182.05 148.34 176.17 144.95 176.17 143.35 182.05 146.74 182.05 148.34"/><polygon class="cls-9" points="186.07 150.66 183.76 149.33 183.76 147.73 186.07 149.07 186.07 150.66"/></g></g></svg>