<svg xmlns="http://www.w3.org/2000/svg" viewBox="0 0 834 834"><defs><style>.cls-1,.cls-2{fill:#f9487a;}.cls-1{opacity:0.5;}</style></defs><title>Asset 1ha2</title><g id="Layer_2" data-name="Layer 2"><g id="Layer_1-2" data-name="Layer 1"><circle class="cls-1" cx="417" cy="417" r="417"/><path class="cls-2" d="M498,440H425.9l22.6-77.1A15,15,0,0,0,434,344H352a15.08,15.08,0,0,0-14.9,13l-16,130A15,15,0,0,0,336,504h81L385.4,645.5a15,15,0,0,0,27.6,11l98-194A15,15,0,0,0,498,440Zm79-160c-.6,0-1.1.2-1.6.2A78.09,78.09,0,0,0,577,264a80,80,0,0,0-80-80c-24.6,0-46.3,11.3-61,28.8-18.6-36-55.7-60.8-99-60.8A111.94,111.94,0,0,0,225,264a113.72,113.72,0,0,0,2.1,21.2C188.8,297.8,161,333.5,161,376a96,96,0,0,0,96,96h32.5l15.9-119.2A47.1,47.1,0,0,1,352,312h85a47,47,0,0,1,45.4,59.1L471.5,412H502a46.78,46.78,0,0,1,45,60h30a96,96,0,0,0,0-192Z"/></g></g></svg>