<svg xmlns="http://www.w3.org/2000/svg" viewBox="0 0 834 834"><defs><style>.cls-1,.cls-2{fill:#bd69ff;}.cls-1{opacity:0.5;isolation:isolate;}</style></defs><title>Asset 4modules</title><g id="Layer_2" data-name="Layer 2"><g id="Layer_1-2" data-name="Layer 1"><g id="Layer_2-2" data-name="Layer 2"><g id="Layer_1-2-2" data-name="Layer 1-2"><circle class="cls-1" cx="417" cy="417" r="417"/></g></g><path class="cls-2" d="M173.41,309,406.35,414.69a25.61,25.61,0,0,0,21.29,0L660.58,309c16.55-7.51,16.55-32.52,0-40L427.65,163.31a25.61,25.61,0,0,0-21.29,0L173.41,269C156.86,276.49,156.86,301.51,173.41,309ZM660.59,397.3,602.5,371,440.86,444.24a57.64,57.64,0,0,1-47.72,0L231.51,371l-58.1,26.33c-16.55,7.5-16.55,32.5,0,40L406.35,542.89a25.68,25.68,0,0,0,21.29,0L660.59,437.3c16.55-7.5,16.55-32.5,0-40Zm0,127.8-57.87-26.23L440.86,572.24a57.64,57.64,0,0,1-47.72,0L231.29,498.87,173.41,525.1c-16.55,7.5-16.55,32.5,0,40L406.35,670.69a25.68,25.68,0,0,0,21.29,0L660.59,565.1C677.14,557.6,677.14,532.6,660.59,525.1Z"/></g></g></svg>